<svg xmlns="http://www.w3.org/2000/svg" viewBox="0 0 653.39 74.21"><defs><style>.cls-1{fill:#333;}</style></defs><title>AntTesText</title><g id="Layer_2" data-name="Layer 2"><g id="Layer_1-2" data-name="Layer 1"><path class="cls-1" d="M46.56,58.65h-7.5l-5.9-17.14H11.39L6.14,58.65H0L19.06,0h8.31ZM31.59,36,22.5,7.82,13.43,36Z"/><path class="cls-1" d="M87.8,58.65H81.48V30.77q0-6-2.62-8.46a9,9,0,0,0-6.36-2.45A10.92,10.92,0,0,0,63.84,24q-3.5,4.13-3.5,10.87v23.8H53.59V15.25h6.27v8q5.29-9.19,13.71-9.2a13.57,13.57,0,0,1,8.27,2.51,13.34,13.34,0,0,1,4.68,5.65q1.27,3.14,1.27,11.34Z"/><path class="cls-1" d="M121,54.05v5.33a47.92,47.92,0,0,1-6.19.47q-12.59,0-12.59-13.16V20.54H94.5V15.25h7.69l.3-10.91,6.27-.6V15.25h9.71v5.29h-9.71V47.82q0,6.71,7,6.71A33.13,33.13,0,0,0,121,54.05Z"/><path class="cls-1" d="M162.39,58.65h-6.75V32.31a30.92,30.92,0,0,0-.58-7,7.32,7.32,0,0,0-2.75-4,7.9,7.9,0,0,0-5-1.7,10.84,10.84,0,0,0-8.7,4.25q-3.5,4.25-3.5,11.39V58.65h-6.75V0h6.75V23.25q4.6-9.19,13.15-9.2a14.94,14.94,0,0,1,6.81,1.5,11.42,11.42,0,0,1,4.58,4,15.78,15.78,0,0,1,2.17,4.83,38,38,0,0,1,.58,8Z"/><path class="cls-1" d="M191.44,59.85q-8.94,0-13.94-6.62t-5-16.43q0-10.37,5.63-16.56a18.16,18.16,0,0,1,14-6.19q9,0,14.16,6.52t5.18,16.28q0,10.15-5.59,16.58A18.24,18.24,0,0,1,191.44,59.85Zm.52-5.59A10.74,10.74,0,0,0,200.59,50q3.48-4.25,3.48-13.23T200.42,23.7a11.18,11.18,0,0,0-8.55-4.06,10.76,10.76,0,0,0-8.51,4.1q-3.48,4.1-3.48,13,0,9.41,3.48,13.47A10.88,10.88,0,0,0,192,54.27Z"/><path class="cls-1" d="M255.8,58.65h-6.32V30.77q0-6-2.62-8.46a9,9,0,0,0-6.36-2.45A10.92,10.92,0,0,0,231.85,24q-3.5,4.13-3.5,10.87v23.8H221.6V15.25h6.27v8q5.29-9.19,13.71-9.2a13.57,13.57,0,0,1,8.27,2.51,13.34,13.34,0,0,1,4.68,5.65q1.27,3.14,1.27,11.34Z"/><path class="cls-1" d="M297.32,15.25l-17.4,48.47q-3.78,10.48-12.08,10.48a21.45,21.45,0,0,1-5.81-.9V68a20.6,20.6,0,0,0,4.51.6,8,8,0,0,0,5.39-1.85q2.17-1.85,4.33-9l-15-42.51h6.85l11.65,32.61,11.87-32.61Z"/><path class="cls-1" d="M344.36,58.65H337V6.45h-16.8V0h41V6.45H344.36Z"/><path class="cls-1" d="M391.71,45.72,398,47a17.67,17.67,0,0,1-6.7,9.2,19.34,19.34,0,0,1-11.73,3.64,18.25,18.25,0,0,1-14.39-6.26q-5.5-6.26-5.5-16.41,0-10.37,5.71-16.75a18.45,18.45,0,0,1,14.35-6.39,17.34,17.34,0,0,1,13.69,5.89q5.18,5.89,5.31,17.62H367.18q0,9.84,4.13,13.28A13.43,13.43,0,0,0,380,54.27Q388.32,54.27,391.71,45.72Zm-.39-13.19a18.85,18.85,0,0,0-1.2-6.49,11.07,11.07,0,0,0-3.78-4.83,10.37,10.37,0,0,0-6.4-2,11.43,11.43,0,0,0-8.53,3.61,14.94,14.94,0,0,0-3.93,9.71Z"/><path class="cls-1" d="M403,47.39l6.45-1.33q2.15,8.21,13.58,8.21a12.87,12.87,0,0,0,7.13-1.89,6,6,0,0,0,2.92-5.32q0-5.11-7.44-6.48l-9.15-1.74a16.7,16.7,0,0,1-8.55-4,10.43,10.43,0,0,1-3.18-7.95,11.49,11.49,0,0,1,4.34-9.13q4.34-3.67,11.69-3.67,14.14,0,17.45,11l-6.19,1.33q-2.66-6.79-11-6.79a12.33,12.33,0,0,0-6.77,1.7,5.34,5.34,0,0,0-2.64,4.74q0,4.81,6.75,6.05l8.46,1.52q13.28,2.41,13.28,12.87a11.49,11.49,0,0,1-4.94,9.66q-4.94,3.68-13.15,3.68Q406.67,59.85,403,47.39Z"/><path class="cls-1" d="M465.23,59.85q-8.94,0-13.94-6.62t-5-16.43q0-10.37,5.63-16.56a18.15,18.15,0,0,1,14-6.19q9,0,14.16,6.52t5.18,16.28q0,10.15-5.59,16.58A18.24,18.24,0,0,1,465.23,59.85Zm.52-5.59A10.74,10.74,0,0,0,474.39,50q3.48-4.25,3.48-13.23T474.21,23.7a11.18,11.18,0,0,0-8.55-4.06,10.76,10.76,0,0,0-8.51,4.1q-3.48,4.1-3.48,13,0,9.41,3.48,13.47A10.88,10.88,0,0,0,465.75,54.27Z"/><path class="cls-1" d="M502.14,58.65H495.4V15.25h5.93V25.39q3.14-7.18,6.29-9.3A11.45,11.45,0,0,1,514.09,14a26.6,26.6,0,0,1,2.66.17v6.45h-1.37a11.88,11.88,0,0,0-9.28,4.17q-3.7,4.17-4,11Z"/><path class="cls-1" d="M531.36,0V7.52H524.1V0Zm-.21,15.25v43.4H524.4V15.25Z"/><path class="cls-1" d="M573.26,45.72,579.53,47a17.67,17.67,0,0,1-6.7,9.2,19.34,19.34,0,0,1-11.73,3.64A18.25,18.25,0,0,1,546.7,53.6q-5.5-6.26-5.5-16.41,0-10.37,5.71-16.75a18.45,18.45,0,0,1,14.35-6.39A17.34,17.34,0,0,1,575,19.94q5.18,5.89,5.31,17.62H548.72q0,9.84,4.13,13.28a13.43,13.43,0,0,0,8.72,3.44Q569.86,54.27,573.26,45.72Zm-.39-13.19a18.85,18.85,0,0,0-1.2-6.49,11.07,11.07,0,0,0-3.78-4.83,10.37,10.37,0,0,0-6.4-2A11.43,11.43,0,0,0,553,22.82,14.94,14.94,0,0,0,549,32.53Z"/><path class="cls-1" d="M597.15,58.65H590.4V15.25h5.93V25.39q3.14-7.18,6.29-9.3A11.45,11.45,0,0,1,609.09,14a26.6,26.6,0,0,1,2.66.17v6.45h-1.37a11.88,11.88,0,0,0-9.28,4.17q-3.7,4.17-4,11Z"/><path class="cls-1" d="M633.37,59.85q-8.94,0-13.94-6.62t-5-16.43q0-10.37,5.63-16.56a18.15,18.15,0,0,1,14-6.19q9,0,14.16,6.52t5.18,16.28q0,10.15-5.59,16.58A18.24,18.24,0,0,1,633.37,59.85Zm.52-5.59A10.74,10.74,0,0,0,642.52,50Q646,45.76,646,36.78T642.35,23.7a11.18,11.18,0,0,0-8.55-4.06,10.76,10.76,0,0,0-8.51,4.1q-3.48,4.1-3.48,13,0,9.41,3.48,13.47A10.88,10.88,0,0,0,633.89,54.27Z"/></g></g></svg>